<svg width="147" height="114" viewBox="0 0 147 114" fill="none" xmlns="http://www.w3.org/2000/svg">
<g filter="url(#filter0_d_192_15085)">
<circle cx="90" cy="49" r="41" fill="#FFAF8D"/>
</g>
<path d="M80.6471 56.1875H99.9412C100.695 56.1875 101.319 55.6069 101.319 54.9062L101.319 49.7812C101.319 49.0806 100.695 48.5 99.9412 48.5H80.6471C79.8977 48.5 79.2689 49.0846 79.2689 49.7812V54.9062C79.2689 55.6109 79.8977 56.1875 80.6471 56.1875ZM104.076 33.125H100.63V29.9219C100.63 28.8608 99.7043 28 98.6405 28C97.5768 28 96.4958 28.8608 96.4958 29.9219V33.125H84.0924V29.9219C84.0924 28.8608 83.1708 28 82.0252 28C80.8796 28 79.958 28.8608 79.958 29.9219V33.125H76.5126C73.4678 33.125 71 35.4192 71 38.25V63.875C71 66.7058 73.4678 69 76.5126 69H104.076C107.12 69 109.588 66.7058 109.588 63.875V38.25C109.588 35.4192 107.116 33.125 104.076 33.125ZM105.454 63.875C105.454 64.5816 104.836 65.1562 104.076 65.1562H76.5126C75.7527 65.1562 75.1345 64.5816 75.1345 63.875V43.375H105.454V63.875Z" fill="white"/>
<path opacity="0.7" fill-rule="evenodd" clip-rule="evenodd" d="M22.5697 83.4625C23.0683 83.0717 23.554 82.6534 23.9768 82.1847C25.4582 80.5198 30.1288 74.6931 30.9839 73.4541C31.2594 73.0908 31.5044 72.6342 31.6088 72.1853C31.7924 71.3875 31.1537 70.807 30.3734 71.058C30.0913 71.1411 29.8129 71.3304 29.5846 71.5426C28.9263 72.1662 28.2891 72.8067 27.6937 73.4807C25.9101 75.5219 24.1289 77.5822 22.3978 79.6654C21.8234 80.3562 21.3458 81.1417 20.8868 81.925C20.5446 82.5098 20.6666 83.2604 21.0893 83.5476C21.5936 83.8829 22.1222 83.8082 22.5697 83.4625ZM19.0181 57.734C18.8536 57.8657 18.7019 57.9919 18.5572 58.1123L18.5572 58.1123C18.2489 58.3687 17.972 58.599 17.6697 58.8011C13.195 61.8127 8.23221 63.7118 3.10313 65.1855C2.50162 65.3564 1.84291 65.4471 1.23949 65.3759C0.913951 65.3384 0.489756 64.9641 0.343436 64.6236C0.235722 64.3655 0.415422 63.8394 0.63563 63.6379C1.04935 63.2479 1.55507 62.9144 2.08319 62.6847C5.56407 61.1616 9.04734 59.6577 12.5435 58.1812C13.5681 57.7519 14.6071 57.3445 15.6441 56.9379L15.6449 56.9376C15.9327 56.8247 16.2204 56.7119 16.5077 56.5987C16.9476 56.4187 17.4004 56.2661 17.8475 56.1433C18.348 55.9945 18.8689 56.0855 19.0658 56.604C19.078 56.637 19.0908 56.6697 19.1035 56.7023C19.2233 57.0092 19.3403 57.309 19.0181 57.734ZM16.7027 30.4287L16.7028 30.4288C17.0267 30.7747 17.3697 31.1412 17.682 31.5286L17.6827 31.5295L17.6833 31.5303C19.5274 33.8323 21.3715 36.1343 23.1889 38.4492C23.5821 38.9533 23.9 39.5344 24.1516 40.114C24.4934 40.886 24.3604 41.4838 23.9014 41.8891C23.4424 42.2944 22.838 42.2912 22.1693 41.7726C21.7103 41.422 21.236 41.0248 20.8872 40.5735C18.6175 37.5867 16.364 34.5785 14.1291 31.5681C13.8794 31.2305 13.6678 30.8205 13.5887 30.4135C13.3775 29.4025 14.1902 28.7308 15.1201 29.1495C15.3482 29.2562 15.5606 29.419 15.7954 29.5991L15.7955 29.5991C15.9322 29.7039 16.0765 29.8145 16.2359 29.9232C16.3824 30.0866 16.5401 30.2551 16.7027 30.4287Z" fill="#FFAF8D"/>
<defs>
<filter id="filter0_d_192_15085" x="33" y="0" width="114" height="114" filterUnits="userSpaceOnUse" color-interpolation-filters="sRGB">
<feFlood flood-opacity="0" result="BackgroundImageFix"/>
<feColorMatrix in="SourceAlpha" type="matrix" values="0 0 0 0 0 0 0 0 0 0 0 0 0 0 0 0 0 0 127 0" result="hardAlpha"/>
<feOffset dy="8"/>
<feGaussianBlur stdDeviation="8"/>
<feColorMatrix type="matrix" values="0 0 0 0 0.305882 0 0 0 0 0.309804 0 0 0 0 0.447059 0 0 0 0.16 0"/>
<feBlend mode="normal" in2="BackgroundImageFix" result="effect1_dropShadow_192_15085"/>
<feBlend mode="normal" in="SourceGraphic" in2="effect1_dropShadow_192_15085" result="shape"/>
</filter>
</defs>
</svg>
